REM DIRINDEX 1\2\4,1\2\5,1\2\6,1\3\7,1\3\8
REM DIRNAME folder01,folder02,folder03,folder04,folder05,folder06,folder07,folder08
TITLE ""
FILE "042_Proficiency Test07.mp3" MP3
  TRACK 01 AUDIO
    TITLE "0:"
    INDEX 01 00:00:00
  TRACK 02 AUDIO
    TITLE "8:cjc128_3996"
    INDEX 01 00:00:23
  TRACK 03 AUDIO
    TITLE "0:"
    INDEX 01 00:02:49
  TRACK 04 AUDIO
    TITLE "8:cjc128_3997"
    INDEX 01 00:03:08
  TRACK 05 AUDIO
    TITLE "0:"
    INDEX 01 00:05:18
  TRACK 06 AUDIO
    TITLE "7:cjc128_3998"
    INDEX 01 00:06:02
  TRACK 07 AUDIO
    TITLE "0:"
    INDEX 01 00:09:04
  TRACK 08 AUDIO
    TITLE "8:cjc128_3999"
    INDEX 01 00:13:02
  TRACK 09 AUDIO
    TITLE "0:"
    INDEX 01 00:15:03
  TRACK 10 AUDIO
    TITLE "7:cjc128_4000"
    INDEX 01 00:15:60
  TRACK 11 AUDIO
    TITLE "0:"
    INDEX 01 00:19:11
  TRACK 12 AUDIO
    TITLE "8:cjc128_4001"
    INDEX 01 00:23:30
  TRACK 13 AUDIO
    TITLE "0:"
    INDEX 01 00:25:41
  TRACK 14 AUDIO
    TITLE "7:cjc128_4002"
    INDEX 01 00:26:20
  TRACK 15 AUDIO
    TITLE "0:"
    INDEX 01 00:29:70
  TRACK 16 AUDIO
    TITLE "8:cjc128_4003"
    INDEX 01 00:34:04
  TRACK 17 AUDIO
    TITLE "0:"
    INDEX 01 00:35:64
  TRACK 18 AUDIO
    TITLE "7:cjc128_4004"
    INDEX 01 00:36:42
  TRACK 19 AUDIO
    TITLE "0:"
    INDEX 01 00:40:58
  TRACK 20 AUDIO
    TITLE "8:cjc128_4005"
    INDEX 01 00:45:49
  TRACK 21 AUDIO
    TITLE "0:"
    INDEX 01 00:47:54
  TRACK 22 AUDIO
    TITLE "7:cjc128_4006"
    INDEX 01 00:48:44
  TRACK 23 AUDIO
    TITLE "0:"
    INDEX 01 00:53:04
